<svg width="1440" height="900" viewBox="0 0 1440 900" fill="none" xmlns="http://www.w3.org/2000/svg">
<rect width="1440" height="900" fill="#ECF2FF"/>
<g clip-path="url(#clip0)">
<path d="M720 439.5C693.944 439.5 657 479.781 657 505.207C657 516.659 665.797 523.5 680.54 523.5C696.565 523.5 707.147 515.271 720 515.271C732.964 515.271 743.576 523.5 759.46 523.5C774.203 523.5 783 516.659 783 505.207C783 479.781 746.056 439.5 720 439.5ZM671.674 435.362C668.261 423.993 657.748 416.63 648.193 418.913C638.638 421.197 633.66 432.265 637.073 443.634C640.485 455.004 650.999 462.367 660.554 460.083C670.109 457.8 675.086 446.732 671.674 435.362ZM699.472 428.544C709.625 425.873 714.704 412.157 710.819 397.91C706.934 383.663 695.555 374.282 685.402 376.953C675.25 379.624 670.171 393.339 674.056 407.587C677.941 421.834 689.324 431.218 699.472 428.544ZM791.804 418.917C782.249 416.633 771.739 423.996 768.323 435.366C764.91 446.735 769.888 457.803 779.443 460.087C788.998 462.37 799.508 455.007 802.924 443.638C806.336 432.268 801.359 421.2 791.804 418.917ZM740.527 428.544C750.68 431.215 762.059 421.834 765.944 407.587C769.829 393.339 764.75 379.627 754.597 376.953C744.445 374.279 733.066 383.663 729.181 397.91C725.296 412.157 730.375 425.873 740.527 428.544Z" fill="#506FFF"/>
</g>
<defs>
<clipPath id="clip0">
<rect width="168" height="168" fill="white" transform="translate(636 366)"/>
</clipPath>
</defs>
</svg>
